<svg width="111" height="117" viewBox="0 0 111 117" fill="none" xmlns="http://www.w3.org/2000/svg">
<path fill-rule="evenodd" clip-rule="evenodd" d="M38.2124 92.0488C18.0499 74.024 9.80099 50.5314 21.4764 28.5881C35.4706 2.28663 40.2625 41.7259 61.752 34.7427C83.2414 27.7594 111.873 45.1173 97.2288 76.0458C83.5195 104.999 58.375 110.074 38.2124 92.0488Z" fill="#5FD788"/>
<path d="M83.2337 42.8573H39.3493C38.1856 42.8573 37.0688 42.3556 36.2461 41.4627C35.4234 40.5699 34.9609 39.3581 34.9609 38.0955V28.5717C34.9609 27.6951 35.6159 26.9844 36.4238 26.9844H86.1594C86.5473 26.9844 86.9195 27.1516 87.1938 27.4492C87.4681 27.7468 87.6222 28.1508 87.6222 28.5717V38.0955C87.6222 39.3582 87.1599 40.57 86.337 41.4627C85.5142 42.3554 84.3974 42.8573 83.2338 42.8573H83.2337ZM37.8865 30.1589V38.0954C37.8865 38.5163 38.0406 38.9202 38.3149 39.2178C38.5892 39.5155 38.9614 39.6827 39.3493 39.6827H83.2337C83.6216 39.6827 83.9938 39.5155 84.2681 39.2178C84.5424 38.9202 84.6965 38.5163 84.6965 38.0954V30.1589H37.8865Z" fill="#424B25"/>
<path d="M83.2336 100H39.3492C38.8275 99.9987 38.3462 99.6968 38.0856 99.2065C37.6598 98.4128 27.6468 79.6437 27.6468 66.6659C27.637 62.8698 28.5865 59.1432 30.3915 55.8913C32.1972 52.6394 34.7892 49.9864 37.8865 48.2213V41.2691H40.8121V49.2056C40.8121 49.8405 40.4634 50.4145 39.9259 50.6646C37.1322 52.0996 34.7708 54.3644 33.1154 57.1967C31.46 60.029 30.5783 63.3121 30.5725 66.6659C30.5725 77.3725 38.3168 93.1421 40.2023 96.8246H82.3815C84.2667 93.1419 92.0113 77.3616 92.0113 66.6659C92.0047 63.3106 91.1218 60.0261 89.4651 57.1938C87.8077 54.3615 85.4443 52.0967 82.6493 50.6625C82.1157 50.4102 81.7709 49.8376 81.7716 49.2056V41.269H84.6972V48.2212C87.7945 49.9864 90.3865 52.6394 92.1922 55.8913C93.9972 59.1431 94.9468 62.8698 94.9369 66.6659C94.9369 79.6435 84.9237 98.4119 84.4981 99.2065C84.2375 99.6968 83.7563 99.9987 83.2345 100L83.2336 100Z" fill="#424B25"/>
<path d="M78.8453 92.0633H43.7378C43.1227 92.0633 42.5735 91.646 42.3625 91.0188C42.1287 90.2953 36.4238 73.2013 36.4238 65.0796C36.4395 62.4534 37.293 59.9137 38.8401 57.8936C40.3871 55.8734 42.5317 54.4978 44.9081 54.0004C45.0041 53.9785 45.1021 53.9678 45.2007 53.9685H77.3826C77.4812 53.9678 77.5792 53.9785 77.6752 54.0004C80.0516 54.4979 82.1962 55.8733 83.7432 57.8936C85.2903 59.9139 86.1438 62.4536 86.1595 65.0796C86.1595 73.2017 80.4545 90.295 80.2208 91.0188C80.0099 91.646 79.4606 92.0633 78.8455 92.0633H78.8453ZM44.7727 88.8887H77.8105C79.05 85.0395 83.2334 71.5588 83.2334 65.0792C83.2197 63.2098 82.6157 61.4021 81.5212 59.9574C80.4274 58.5132 78.9104 57.5197 77.2229 57.1427H45.3636C43.6808 57.5303 42.169 58.5266 41.0758 59.9686C39.9833 61.4107 39.374 63.2127 39.3486 65.0792C39.3486 71.5588 43.5319 85.0393 44.7715 88.8887H44.7727Z" fill="#424B25"/>
<path d="M70.0683 92.0636H52.5146C51.7068 92.0636 51.0518 91.3529 51.0518 90.4763V80.9525C51.0518 80.076 51.7068 79.3652 52.5146 79.3652H70.0683C70.4562 79.3652 70.8285 79.5325 71.1027 79.8301C71.377 80.1277 71.5311 80.5316 71.5311 80.9525V90.4763C71.5311 90.8973 71.377 91.3012 71.1027 91.5988C70.8285 91.8964 70.4562 92.0636 70.0683 92.0636ZM53.9774 88.889H68.6055V82.5398H53.9774V88.889Z" fill="#424B25"/>
<path d="M61.2914 76.1905C59.7398 76.1905 58.2515 75.5216 57.1538 74.3311C56.0567 73.1399 55.4402 71.5249 55.4402 69.8413C55.4402 66.7603 59.4073 61.8063 60.2028 60.8446C60.4875 60.5229 60.8806 60.3408 61.2914 60.3408C61.7021 60.3408 62.0953 60.5229 62.38 60.8446C63.1754 61.8062 67.1426 66.7601 67.1426 69.8413C67.1426 71.5249 66.5261 73.14 65.429 74.3311C64.3312 75.5216 62.8429 76.1905 61.2913 76.1905H61.2914ZM61.2914 64.3637C59.7392 66.4684 58.3658 68.8301 58.3658 69.8413C58.3658 70.9758 58.9235 72.0238 59.8286 72.5907C60.7337 73.1576 61.8491 73.1576 62.7543 72.5907C63.6594 72.0238 64.2171 70.9757 64.2171 69.8413C64.2171 68.857 62.845 66.4775 61.2914 64.3637Z" fill="#424B25"/>
<path d="M59.8286 74.603H62.7542V80.9522H59.8286V74.603Z" fill="#424B25"/>
<path d="M53.9774 19.0476H51.0518C51.0518 18.1555 50.7344 17.7778 50.0173 16.9956C48.821 15.9468 48.1262 14.3673 48.1262 12.6984C48.1262 11.0295 48.8211 9.45016 50.0173 8.40127C50.7344 7.61896 51.0518 7.24127 51.0518 6.34921C51.0518 5.45714 50.7344 5.07936 50.0173 4.29714C48.8353 3.23634 48.1431 1.66458 48.1262 0H51.0518C51.0518 0.892154 51.3692 1.26984 52.0863 2.05206C53.2683 3.11287 53.9605 4.68463 53.9774 6.34921C53.9604 8.01375 53.2682 9.58549 52.0863 10.6463C51.3692 11.4287 51.0518 11.8063 51.0518 12.6984C51.0518 13.5905 51.3692 13.9683 52.0863 14.7505C53.2683 15.8113 53.9605 17.383 53.9774 19.0476Z" fill="#424B25"/>
<path d="M64.2171 19.0476H61.2915C61.2915 18.1555 60.9741 17.7778 60.2571 16.9956C59.0607 15.9468 58.366 14.3673 58.366 12.6984C58.366 11.0295 59.0608 9.45016 60.2571 8.40127C60.9741 7.61896 61.2915 7.24127 61.2915 6.34921C61.2915 5.45714 60.9741 5.07936 60.2571 4.29714C59.0751 3.23634 58.3829 1.66458 58.366 0H61.2916C61.2916 0.892154 61.609 1.26984 62.326 2.05206C63.508 3.11287 64.2003 4.68463 64.2171 6.34921C64.2002 8.01375 63.5079 9.58549 62.326 10.6463C61.609 11.4287 61.2916 11.8063 61.2916 12.6984C61.2916 13.5905 61.609 13.9683 62.326 14.7505C63.508 15.8113 64.2003 17.383 64.2171 19.0476Z" fill="#424B25"/>
<path d="M74.4566 19.0476H71.531C71.531 18.1555 71.2136 17.7778 70.4966 16.9956C69.3002 15.9468 68.6055 14.3673 68.6055 12.6984C68.6055 11.0295 69.3003 9.45016 70.4966 8.40127C71.2136 7.61896 71.531 7.24127 71.531 6.34921C71.531 5.45714 71.2136 5.07936 70.4966 4.29714C69.3146 3.23634 68.6224 1.66458 68.6055 0H71.5311C71.5311 0.892154 71.8485 1.26984 72.5655 2.05206C73.7475 3.11287 74.4398 4.68463 74.4566 6.34921C74.4397 8.01375 73.7474 9.58549 72.5655 10.6463C71.8485 11.4287 71.5311 11.8063 71.5311 12.6984C71.5311 13.5905 71.8485 13.9683 72.5655 14.7505C73.7475 15.8113 74.4398 17.383 74.4566 19.0476Z" fill="#424B25"/>
<path d="M36.4236 33.3333H81.7708V36.5079H36.4236V33.3333Z" fill="#424B25"/>
</svg>
