<svg width="111" height="116" viewBox="0 0 111 116" fill="none" xmlns="http://www.w3.org/2000/svg">
<path fill-rule="evenodd" clip-rule="evenodd" d="M38.2124 91.0488C18.0499 73.024 9.80099 49.5314 21.4764 27.5881C35.4706 1.28663 40.2625 40.7259 61.752 33.7427C83.2414 26.7594 111.873 44.1173 97.2288 75.0458C83.5195 103.999 58.375 109.074 38.2124 91.0488Z" fill="#5FD788"/>
<path d="M88.4018 58.6781H82.6898C81.954 58.6781 81.3569 58.0303 81.3569 57.2319V50.0006C81.3569 47.4939 83.2358 45.4553 85.5458 45.4553C87.8557 45.4553 89.7346 47.4941 89.7346 50.0006V57.2319C89.7346 58.0303 89.1375 58.6781 88.4017 58.6781H88.4018ZM84.0225 55.7857H87.069V50.0007C87.069 49.0894 86.3856 48.3478 85.5458 48.3478C84.706 48.3478 84.0225 49.0894 84.0225 50.0007V55.7857Z" fill="#424B25"/>
<path d="M55.0822 100H55.0816L54.8789 99.9992C47.5341 99.9432 40.6019 96.7946 35.3606 91.1342C30.1177 85.4738 27.1826 77.9674 27.0951 69.9983C26.9788 59.411 31.8267 49.6916 40.0636 43.9982C45.0564 40.5464 48.0376 34.6809 48.0376 28.3071C48.0376 27.5087 48.6346 26.8608 49.3704 26.8608H60.7947C61.5305 26.8608 62.1275 27.5087 62.1275 28.3071C62.1275 34.6941 65.093 40.5495 70.0605 43.9695C74.5079 47.0317 78.0581 51.3683 80.3322 56.5143C80.4437 56.7253 80.5076 56.971 80.5076 57.2322C80.5076 57.9989 79.9582 58.6261 79.2632 58.6755L79.2639 61.9843H81.1224C81.7487 61.9843 82.2914 62.458 82.4246 63.1221C82.4736 63.3664 82.5219 63.6106 82.5647 63.8563C82.6355 64.257 82.5477 64.6709 82.322 64.9971L77.3599 72.1768V87.5226C77.3599 87.8472 77.2592 88.163 77.0736 88.4184C71.7259 95.7781 63.7098 100 55.0833 100L55.0822 100ZM50.6581 29.7522C50.2399 36.5533 46.8813 42.7138 41.4948 46.4365C34.0419 51.5883 29.6543 60.3833 29.7598 69.9639C29.923 84.825 41.1997 97.001 54.8975 97.1068L55.0811 97.1075C62.7348 97.1075 69.8559 93.4352 74.6935 87.0139V71.6946C74.6935 71.3817 74.7866 71.0769 74.96 70.8268L79.0728 64.8765H77.9304C77.1946 64.8765 76.5975 64.2286 76.5975 63.4302V57.2321C76.5975 56.7642 76.8015 56.3488 77.1191 56.0846C75.0696 52.162 72.1631 48.8438 68.6311 46.4117C63.2658 42.7178 59.9208 36.5668 59.5046 29.753L50.6581 29.7522Z" fill="#424B25"/>
<path d="M89.9252 100H81.1667C77.5973 100 74.6929 96.8484 74.6929 92.9752V71.6938C74.6929 70.8954 75.2899 70.2476 76.0257 70.2476H95.067C95.8028 70.2476 96.3999 70.8954 96.3999 71.6938V92.9752C96.3999 96.8484 93.4954 100 89.926 100H89.9252ZM77.3585 73.1404V92.9748C77.3585 95.2533 79.0667 97.107 81.1665 97.107H89.9251C92.0249 97.107 93.7332 95.2534 93.7332 92.9748V73.1404H77.3585Z" fill="#424B25"/>
<path d="M95.066 73.1403H76.0246C75.52 73.1403 75.0583 72.8311 74.8325 72.3411C74.6068 71.8512 74.6557 71.2645 74.9583 70.8262L80.6704 62.5619C80.922 62.1981 81.3171 61.9834 81.7367 61.9834H89.3528C89.7724 61.9834 90.1675 62.1974 90.4191 62.5619L96.1312 70.8262C96.4338 71.2645 96.4827 71.8512 96.257 72.3411C96.0312 72.8311 95.5695 73.1403 95.0649 73.1403H95.066ZM78.6912 70.2478H92.4004L88.6875 64.8759H82.4041L78.6912 70.2478Z" fill="#424B25"/>
<path d="M93.1631 64.8758H77.9307C77.1949 64.8758 76.5979 64.2279 76.5979 63.4296V57.2314C76.5979 56.433 77.195 55.7852 77.9307 55.7852H93.1631C93.8989 55.7852 94.4959 56.433 94.4959 57.2314V63.4296C94.4959 64.228 93.8989 64.8758 93.1631 64.8758ZM79.2635 61.9834H91.8303V58.6777H79.2635V61.9834Z" fill="#424B25"/>
<path d="M102.682 99.9999H16.9996C16.2638 99.9999 15.6667 99.3521 15.6667 98.5537C15.6667 97.7553 16.2638 97.1074 16.9996 97.1074H102.682C103.418 97.1074 104.015 97.7553 104.015 98.5537C104.015 99.3521 103.418 99.9999 102.682 99.9999Z" fill="#424B25"/>
<path d="M58.8894 29.752H51.2732C50.5375 29.752 49.9404 29.1041 49.9404 28.3057V21.8964C48.7048 22.9619 47.1673 23.5537 45.5612 23.5537C43.6565 23.5537 41.8796 22.742 40.563 21.2973C40.0163 21.4242 39.4587 21.4877 38.897 21.4877C34.4871 21.4877 30.8999 17.5954 30.8999 12.81C30.8999 8.02463 34.4869 4.13236 38.897 4.13236C40.7691 4.13236 42.5738 4.85548 43.9943 6.12827C45.6515 3.61062 48.343 2.06618 51.2732 2.06618C53.3207 2.06618 55.2614 2.81144 56.8256 4.15956C58.255 1.63303 60.8323 0 63.6495 0C67.2475 0 70.2912 2.55524 71.2949 6.11939C72.5713 4.8672 74.2537 4.13217 76.0258 4.13217C79.91 4.13217 83.0709 7.56107 83.0709 11.7767C83.0709 15.9924 79.9102 19.4213 76.0258 19.4213C74.7664 19.4213 73.5608 19.0664 72.502 18.4001C70.972 21.511 67.9431 23.5534 64.6016 23.5534C63.0518 23.5534 61.5462 23.1166 60.2223 22.3101V28.3054C60.2223 29.1038 59.6252 29.7516 58.8895 29.7516L58.8894 29.752ZM52.606 26.8596H57.5566V19.308C57.5566 18.7066 57.9001 18.1679 58.4182 17.9554C58.9371 17.7429 59.5226 17.9008 59.8891 18.3517C61.0825 19.8193 62.8003 20.6613 64.6016 20.6613C67.3998 20.6613 69.8859 18.6218 70.647 15.7012C70.7769 15.2039 71.1413 14.8194 71.6031 14.6925C72.0655 14.5656 72.5544 14.7161 72.8863 15.0873C73.7179 16.017 74.8332 16.5291 76.0259 16.5291C78.4406 16.5291 80.4051 14.3974 80.4051 11.7772C80.4051 9.15694 78.4406 7.02522 76.0259 7.02522C74.3401 7.02522 72.785 8.09516 72.0634 9.75179C71.86 10.2189 71.4425 10.5325 70.9685 10.5753C70.4952 10.6173 70.0349 10.3834 69.7635 9.95914C69.6241 9.74147 69.4711 9.5297 69.3073 9.32973C69.1046 9.08106 68.987 8.76377 68.974 8.43246C68.855 5.32601 66.5158 2.89318 63.6495 2.89318C61.2926 2.89318 59.1872 4.60729 58.5304 7.06219C58.3917 7.5824 57.9959 7.97421 57.5063 8.07825C57.016 8.1823 56.5141 7.98012 56.2047 7.55584C55.0031 5.90591 53.2058 4.95923 51.2733 4.95923C48.7544 4.95923 46.4866 6.58554 45.4952 9.10179C45.3076 9.57919 44.8975 9.9105 44.4222 9.97029C43.9468 10.0308 43.4783 9.80795 43.1954 9.38958C42.1931 7.90938 40.5862 7.02531 38.8971 7.02531C35.9573 7.02531 33.5658 9.62041 33.5658 12.8104C33.5658 16.0003 35.9573 18.5954 38.8971 18.5954C39.4744 18.5954 40.0456 18.4943 40.5944 18.2943C41.135 18.0973 41.7321 18.2958 42.0782 18.788C42.9153 19.9789 44.185 20.6615 45.5613 20.6615C46.8513 20.6615 48.0705 20.0468 48.9056 18.9754C49.213 18.5814 49.6903 18.3947 50.1582 18.4862C50.5322 18.5592 50.9069 18.5954 51.2734 18.5954C52.0092 18.5954 52.6062 19.2433 52.6062 20.0416L52.606 26.8596Z" fill="#424B25"/>
<path d="M55.0823 91.7355C43.8485 91.7355 34.7092 81.8183 34.7092 69.6286C34.7092 68.8302 35.3063 68.1824 36.0421 68.1824C36.7778 68.1824 37.3749 68.8302 37.3749 69.6286C37.3749 80.2232 45.3189 88.8434 55.0827 88.8434C55.8185 88.8434 56.4156 89.4913 56.4156 90.2897C56.4156 91.0881 55.8185 91.7359 55.0827 91.7359L55.0823 91.7355Z" fill="#424B25"/>
<path d="M55.0823 66.9424C52.2473 66.9424 49.9414 64.4403 49.9414 61.364C49.9414 58.2878 52.2473 55.7856 55.0823 55.7856C57.9173 55.7856 60.2232 58.2878 60.2232 61.364C60.2232 64.4403 57.9173 66.9424 55.0823 66.9424ZM55.0823 58.6781C53.7175 58.6781 52.607 59.883 52.607 61.364C52.607 62.845 53.7175 64.05 55.0823 64.05C56.4471 64.05 57.5576 62.845 57.5576 61.364C57.5576 59.883 56.4471 58.6781 55.0823 58.6781Z" fill="#424B25"/>
<path d="M63.6506 87.6023C60.2906 87.6023 57.5576 84.6368 57.5576 80.9909C57.5576 77.3449 60.2906 74.3794 63.6506 74.3794C67.0106 74.3794 69.7435 77.3449 69.7435 80.9909C69.7435 84.6368 67.0106 87.6023 63.6506 87.6023ZM63.6506 77.2718C61.7609 77.2718 60.2232 78.9402 60.2232 80.9909C60.2232 83.0416 61.7607 84.7099 63.6506 84.7099C65.5404 84.7099 67.0779 83.0416 67.0779 80.9909C67.0779 78.9402 65.5404 77.2718 63.6506 77.2718Z" fill="#424B25"/>
<path d="M95.0659 89.6689H81.7376C81.0018 89.6689 80.4048 89.021 80.4048 88.2226C80.4048 87.4242 81.0018 86.7764 81.7376 86.7764H95.0659C95.8016 86.7764 96.3987 87.4242 96.3987 88.2226C96.3987 89.021 95.8016 89.6689 95.0659 89.6689Z" fill="#424B25"/>
</svg>
