<svg width="111" height="113" viewBox="0 0 111 113" fill="none" xmlns="http://www.w3.org/2000/svg">
<path fill-rule="evenodd" clip-rule="evenodd" d="M38.2124 88.0488C18.0499 70.024 9.80099 46.5314 21.4764 24.5881C35.4706 -1.71337 40.2625 37.7259 61.752 30.7427C83.2414 23.7594 111.873 41.1173 97.2288 72.0458C83.5195 100.999 58.375 106.074 38.2124 88.0488Z" fill="#5FD788"/>
<path d="M96.9092 56.8629H93.2952V52.9413H96.9092V49.0197H93.2952V43.1374C93.2952 42.6174 93.1048 42.1185 92.766 41.7508C92.4272 41.3832 91.9674 41.1766 91.4882 41.1766H87.8742V35.2943C87.8718 32.6787 87.1812 30.1182 85.8841 27.9141C84.5869 25.71 82.7372 23.9522 80.5519 22.8492L80.7269 22.3415H80.7277C83.0841 15.5225 83.0091 7.99468 80.5172 1.23257C80.3083 0.666225 79.8686 0.237297 79.3273 0.0727259C78.786 -0.0918407 78.2044 0.0263319 77.7551 0.392232L73.4183 3.92164C70.3108 6.45048 66.8486 8.41911 63.1636 9.75244C59.4785 11.0865 55.6194 11.7657 51.7342 11.7649C47.0102 11.764 42.4403 13.59 38.8449 16.9144C35.2486 20.239 32.8623 24.8452 32.1129 29.9065C29.7436 30.6199 27.6165 32.0642 25.9902 34.0653C24.3647 36.0664 23.3096 38.5366 22.9538 41.1766H19.2082C18.2104 41.1766 17.4012 42.0546 17.4012 43.1374V49.0197H13.7872V52.9413H17.4012V56.8628H13.7872C12.7893 56.8628 11.9802 57.7408 11.9802 58.8236V92.1569C11.9826 94.2367 12.745 96.2299 14.0995 97.7004C15.4547 99.1701 17.2916 99.9973 19.2082 100H91.4883C93.405 99.9974 95.2419 99.1702 96.597 97.7004C97.9515 96.2298 98.7138 94.2367 98.7163 92.1569V58.8236C98.7163 58.3037 98.5259 57.8047 98.1871 57.4371C97.8483 57.0694 97.3884 56.8628 96.9093 56.8628L96.9092 56.8629ZM35.4712 33.3335H58.9622V29.4119H35.878C36.6976 25.5132 38.712 22.0318 41.5927 19.5388C44.4733 17.0449 48.0495 15.6865 51.7344 15.6865C56.0074 15.6873 60.2531 14.9398 64.3068 13.4727C68.3604 12.0065 72.1688 9.84089 75.5868 7.05904L77.9359 5.14729C79.3016 10.3529 79.0943 15.8966 77.343 20.9649L77.0824 21.7185H77.0832C76.4677 21.6196 75.8473 21.5688 75.2254 21.5688H66.1904V25.4904H75.2254C77.6205 25.493 79.9172 26.5268 81.6112 28.365C83.3053 30.2032 84.2579 32.6953 84.2604 35.2943V41.1767H26.6181C27.0376 38.9638 28.1468 36.9759 29.7594 35.5464C31.3728 34.1178 33.3895 33.3362 35.4716 33.3335L35.4712 33.3335ZM21.0152 52.9413H37.2782V49.0197H21.0152V45.0982H89.6812V49.0197H84.2602V52.9413H89.6812V56.8629H21.0152V52.9413ZM95.1022 92.1569C95.1014 93.1968 94.7198 94.193 94.0422 94.9282C93.3646 95.6635 92.4465 96.0776 91.4882 96.0784H19.2082C18.2498 96.0775 17.3318 95.6635 16.6542 94.9282C15.9766 94.1929 15.595 93.1968 15.5942 92.1569V60.7844H95.1023L95.1022 92.1569Z" fill="#424B25"/>
<path d="M40.8923 49.0198H80.6464V52.9413H40.8923V49.0198Z" fill="#424B25"/>
<path d="M55.3482 88.2355C57.7442 88.2355 60.0423 87.2026 61.7374 85.3645C63.4314 83.5254 64.3832 81.0315 64.3832 78.4316C64.3832 75.8317 63.4313 73.338 61.7374 71.4987C60.0425 69.6605 57.7442 68.6277 55.3482 68.6277C52.9523 68.6277 50.6542 69.6606 48.9591 71.4987C47.265 73.3378 46.3132 75.8317 46.3132 78.4316C46.3157 81.0306 47.2684 83.5227 48.9624 85.3609C50.6564 87.1991 52.9531 88.2328 55.3482 88.2355ZM55.3482 72.5492C56.7858 72.5492 58.1653 73.169 59.1816 74.2719C60.1978 75.3749 60.7691 76.8718 60.7691 78.4315C60.7691 79.9911 60.198 81.4883 59.1816 82.591C58.1651 83.6938 56.7856 84.3137 55.3482 84.3137C53.9109 84.3137 52.5312 83.694 51.5149 82.591C50.4987 81.4881 49.9273 79.9911 49.9273 78.4315C49.9289 76.8716 50.5009 75.3765 51.5173 74.2744C52.533 73.1714 53.9108 72.5508 55.3484 72.5491L55.3482 72.5492Z" fill="#424B25"/>
</svg>
